<mxfile host="app.diagrams.net" modified="2023-09-18T13:53:56.024Z" agent="Mozilla/5.0 (Macintosh; Intel Mac OS X 10_15_7) AppleWebKit/605.1.15 (KHTML, like Gecko) Version/16.4 Safari/605.1.15" etag="c4vF5ITCdagADntlgZNM" version="21.7.2" type="device">
  <diagram name="Page-1" id="AsP60JgBl1jaJY_T1ypP">
    <mxGraphModel dx="2021" dy="509" grid="1" gridSize="10" guides="1" tooltips="1" connect="1" arrows="1" fold="1" page="1" pageScale="1" pageWidth="827" pageHeight="1169" math="0" shadow="0">
      <root>
        <mxCell id="0" />
        <mxCell id="1" parent="0" />
        <mxCell id="V3kPspgKC5jyw7isEUHU-1" value="" style="whiteSpace=wrap;html=1;aspect=fixed;fillColor=#FFFFFF;strokeColor=#1A1A1A;strokeWidth=2;dashed=1;" vertex="1" parent="1">
          <mxGeometry x="50" y="70" width="310" height="310" as="geometry" />
        </mxCell>
        <mxCell id="V3kPspgKC5jyw7isEUHU-3" value="" style="ellipse;whiteSpace=wrap;html=1;aspect=fixed;strokeColor=#67AB9F;fillColor=#67AB9F;" vertex="1" parent="1">
          <mxGeometry x="388" y="255" width="20" height="20" as="geometry" />
        </mxCell>
        <mxCell id="V3kPspgKC5jyw7isEUHU-4" value="gRPC" style="text;html=1;strokeColor=none;fillColor=none;align=center;verticalAlign=middle;whiteSpace=wrap;rounded=0;" vertex="1" parent="1">
          <mxGeometry x="368" y="280" width="60" height="30" as="geometry" />
        </mxCell>
        <mxCell id="V3kPspgKC5jyw7isEUHU-6" value="" style="endArrow=none;html=1;rounded=0;strokeWidth=2;endFill=0;exitX=0.367;exitY=-0.014;exitDx=0;exitDy=0;exitPerimeter=0;" edge="1" parent="1">
          <mxGeometry width="50" height="50" relative="1" as="geometry">
            <mxPoint x="147.01999999999998" y="279.02" as="sourcePoint" />
            <mxPoint x="130.73312629199881" y="219.35479640399535" as="targetPoint" />
          </mxGeometry>
        </mxCell>
        <mxCell id="V3kPspgKC5jyw7isEUHU-7" value="Restaurant Drone Deliveries Service" style="text;html=1;strokeColor=none;fillColor=none;align=left;verticalAlign=middle;whiteSpace=wrap;rounded=0;fontSize=16;" vertex="1" parent="1">
          <mxGeometry x="50" y="40" width="290" height="30" as="geometry" />
        </mxCell>
        <mxCell id="V3kPspgKC5jyw7isEUHU-8" value="journal" style="text;html=1;strokeColor=none;fillColor=none;align=center;verticalAlign=middle;whiteSpace=wrap;rounded=0;" vertex="1" parent="1">
          <mxGeometry x="90" y="340" width="120" height="30" as="geometry" />
        </mxCell>
        <mxCell id="V3kPspgKC5jyw7isEUHU-11" value="" style="group" vertex="1" connectable="0" parent="1">
          <mxGeometry x="110" y="280" width="77" height="60" as="geometry" />
        </mxCell>
        <mxCell id="V3kPspgKC5jyw7isEUHU-12" value="" style="ellipse;whiteSpace=wrap;html=1;fillColor=#FFD966;strokeColor=#FFFFFF;strokeWidth=2;" vertex="1" parent="V3kPspgKC5jyw7isEUHU-11">
          <mxGeometry y="40" width="77" height="20" as="geometry" />
        </mxCell>
        <mxCell id="V3kPspgKC5jyw7isEUHU-13" value="" style="ellipse;whiteSpace=wrap;html=1;fillColor=#FFD966;strokeColor=#FFFFFF;strokeWidth=2;" vertex="1" parent="V3kPspgKC5jyw7isEUHU-11">
          <mxGeometry y="32" width="77" height="20" as="geometry" />
        </mxCell>
        <mxCell id="V3kPspgKC5jyw7isEUHU-14" value="" style="ellipse;whiteSpace=wrap;html=1;fillColor=#FFD966;strokeColor=#FFFFFF;strokeWidth=2;" vertex="1" parent="V3kPspgKC5jyw7isEUHU-11">
          <mxGeometry y="24" width="77" height="20" as="geometry" />
        </mxCell>
        <mxCell id="V3kPspgKC5jyw7isEUHU-15" value="" style="ellipse;whiteSpace=wrap;html=1;fillColor=#FFD966;strokeColor=#FFFFFF;strokeWidth=2;container=0;" vertex="1" parent="V3kPspgKC5jyw7isEUHU-11">
          <mxGeometry y="16" width="77" height="20" as="geometry" />
        </mxCell>
        <mxCell id="V3kPspgKC5jyw7isEUHU-16" value="" style="ellipse;whiteSpace=wrap;html=1;fillColor=#FFD966;strokeColor=#FFFFFF;strokeWidth=2;" vertex="1" parent="V3kPspgKC5jyw7isEUHU-11">
          <mxGeometry y="8" width="77" height="20" as="geometry" />
        </mxCell>
        <mxCell id="V3kPspgKC5jyw7isEUHU-17" value="" style="ellipse;whiteSpace=wrap;html=1;fillColor=#FFD966;strokeColor=#FFFFFF;strokeWidth=2;" vertex="1" parent="V3kPspgKC5jyw7isEUHU-11">
          <mxGeometry width="77" height="20" as="geometry" />
        </mxCell>
        <mxCell id="V3kPspgKC5jyw7isEUHU-18" value="" style="rounded=0;orthogonalLoop=1;jettySize=auto;html=1;strokeWidth=2;endArrow=none;endFill=0;exitX=1;exitY=0.5;exitDx=0;exitDy=0;strokeColor=#67AB9F;" edge="1" parent="1" source="V3kPspgKC5jyw7isEUHU-19">
          <mxGeometry relative="1" as="geometry">
            <mxPoint x="70" y="240" as="sourcePoint" />
            <mxPoint x="60" y="230" as="targetPoint" />
          </mxGeometry>
        </mxCell>
        <mxCell id="V3kPspgKC5jyw7isEUHU-19" value="" style="ellipse;whiteSpace=wrap;html=1;aspect=fixed;strokeColor=#67AB9F;fillColor=#67AB9F;" vertex="1" parent="1">
          <mxGeometry x="-10" y="220" width="20" height="20" as="geometry" />
        </mxCell>
        <mxCell id="V3kPspgKC5jyw7isEUHU-20" value="gRPC" style="text;html=1;strokeColor=none;fillColor=none;align=center;verticalAlign=middle;whiteSpace=wrap;rounded=0;" vertex="1" parent="1">
          <mxGeometry x="-30" y="245" width="60" height="30" as="geometry" />
        </mxCell>
        <mxCell id="V3kPspgKC5jyw7isEUHU-21" value="restaurant2" style="ellipse;whiteSpace=wrap;html=1;fillColor=#99CCFF;strokeColor=#7EA6E0;fontColor=#000000;" vertex="1" parent="1">
          <mxGeometry x="60" y="110" width="120" height="60" as="geometry" />
        </mxCell>
        <mxCell id="V3kPspgKC5jyw7isEUHU-22" value="" style="endArrow=none;html=1;rounded=0;exitX=0;exitY=0.5;exitDx=0;exitDy=0;strokeWidth=2;endFill=0;entryX=1;entryY=0.5;entryDx=0;entryDy=0;" edge="1" parent="1" source="V3kPspgKC5jyw7isEUHU-45" target="V3kPspgKC5jyw7isEUHU-15">
          <mxGeometry width="50" height="50" relative="1" as="geometry">
            <mxPoint x="237.57359312880726" y="178.2842712474619" as="sourcePoint" />
            <mxPoint x="195" y="300.21739130434787" as="targetPoint" />
          </mxGeometry>
        </mxCell>
        <mxCell id="V3kPspgKC5jyw7isEUHU-25" value="" style="endArrow=none;html=1;strokeWidth=2;endFill=0;curved=1;dashed=1;entryX=0;entryY=1;entryDx=0;entryDy=0;dashPattern=1 1;" edge="1" parent="1" target="V3kPspgKC5jyw7isEUHU-21">
          <mxGeometry width="50" height="50" relative="1" as="geometry">
            <mxPoint x="60" y="230" as="sourcePoint" />
            <mxPoint x="94" y="221" as="targetPoint" />
          </mxGeometry>
        </mxCell>
        <mxCell id="V3kPspgKC5jyw7isEUHU-26" value="" style="endArrow=none;html=1;strokeWidth=2;endFill=0;curved=1;dashed=1;entryX=0;entryY=1;entryDx=0;entryDy=0;dashPattern=1 1;" edge="1" parent="1" target="V3kPspgKC5jyw7isEUHU-27">
          <mxGeometry width="50" height="50" relative="1" as="geometry">
            <mxPoint x="60" y="230" as="sourcePoint" />
            <mxPoint x="230" y="170" as="targetPoint" />
          </mxGeometry>
        </mxCell>
        <mxCell id="V3kPspgKC5jyw7isEUHU-27" value="restaurant1" style="ellipse;whiteSpace=wrap;html=1;fillColor=#99CCFF;strokeColor=#7EA6E0;fontColor=#000000;" vertex="1" parent="1">
          <mxGeometry x="66.5" y="160" width="120" height="60" as="geometry" />
        </mxCell>
        <mxCell id="V3kPspgKC5jyw7isEUHU-28" value="" style="whiteSpace=wrap;html=1;aspect=fixed;fillColor=#FFFFFF;strokeColor=#1A1A1A;dashed=1;strokeWidth=2;" vertex="1" parent="1">
          <mxGeometry x="495" y="70" width="310" height="310" as="geometry" />
        </mxCell>
        <mxCell id="V3kPspgKC5jyw7isEUHU-29" value="" style="endArrow=none;html=1;exitX=0.5;exitY=1;exitDx=0;exitDy=0;entryX=1;entryY=0.5;entryDx=0;entryDy=0;entryPerimeter=0;strokeWidth=2;endFill=0;jumpStyle=none;strokeColor=default;curved=1;" edge="1" parent="1" source="V3kPspgKC5jyw7isEUHU-35">
          <mxGeometry width="50" height="50" relative="1" as="geometry">
            <mxPoint x="713.04" y="273.98" as="sourcePoint" />
            <mxPoint x="630" y="315" as="targetPoint" />
            <Array as="points">
              <mxPoint x="725" y="315" />
            </Array>
          </mxGeometry>
        </mxCell>
        <mxCell id="V3kPspgKC5jyw7isEUHU-30" value="" style="endArrow=none;html=1;exitX=0.742;exitY=0.933;exitDx=0;exitDy=0;strokeWidth=2;endFill=0;curved=1;entryX=1;entryY=0.5;entryDx=0;entryDy=0;entryPerimeter=0;exitPerimeter=0;" edge="1" parent="1" source="V3kPspgKC5jyw7isEUHU-34">
          <mxGeometry width="50" height="50" relative="1" as="geometry">
            <mxPoint x="777.426406871193" y="226.21320343559648" as="sourcePoint" />
            <mxPoint x="630" y="315" as="targetPoint" />
            <Array as="points">
              <mxPoint x="785" y="285" />
              <mxPoint x="725" y="310" />
            </Array>
          </mxGeometry>
        </mxCell>
        <mxCell id="V3kPspgKC5jyw7isEUHU-31" value="Local Drone Control" style="text;html=1;strokeColor=none;fillColor=none;align=left;verticalAlign=middle;whiteSpace=wrap;rounded=0;fontSize=16;" vertex="1" parent="1">
          <mxGeometry x="495" y="40" width="200" height="30" as="geometry" />
        </mxCell>
        <mxCell id="V3kPspgKC5jyw7isEUHU-34" value="drone1" style="ellipse;whiteSpace=wrap;html=1;fillColor=#99CCFF;strokeColor=#7EA6E0;fontColor=#000000;" vertex="1" parent="1">
          <mxGeometry x="678" y="103" width="120" height="60" as="geometry" />
        </mxCell>
        <mxCell id="V3kPspgKC5jyw7isEUHU-35" value="drone2" style="ellipse;whiteSpace=wrap;html=1;fillColor=#99CCFF;strokeColor=#7EA6E0;fontColor=#000000;" vertex="1" parent="1">
          <mxGeometry x="650" y="140" width="120" height="60" as="geometry" />
        </mxCell>
        <mxCell id="V3kPspgKC5jyw7isEUHU-36" value="" style="group" vertex="1" connectable="0" parent="1">
          <mxGeometry x="554.25" y="280" width="77" height="60" as="geometry" />
        </mxCell>
        <mxCell id="V3kPspgKC5jyw7isEUHU-37" value="" style="ellipse;whiteSpace=wrap;html=1;fillColor=#15a9ce;strokeColor=#FFFFFF;strokeWidth=2;" vertex="1" parent="V3kPspgKC5jyw7isEUHU-36">
          <mxGeometry y="40" width="77" height="20" as="geometry" />
        </mxCell>
        <mxCell id="V3kPspgKC5jyw7isEUHU-38" value="" style="ellipse;whiteSpace=wrap;html=1;fillColor=#15a9ce;strokeColor=#FFFFFF;strokeWidth=2;" vertex="1" parent="V3kPspgKC5jyw7isEUHU-36">
          <mxGeometry y="32" width="77" height="20" as="geometry" />
        </mxCell>
        <mxCell id="V3kPspgKC5jyw7isEUHU-39" value="" style="ellipse;whiteSpace=wrap;html=1;fillColor=#15a9ce;strokeColor=#FFFFFF;strokeWidth=2;" vertex="1" parent="V3kPspgKC5jyw7isEUHU-36">
          <mxGeometry y="24" width="77" height="20" as="geometry" />
        </mxCell>
        <mxCell id="V3kPspgKC5jyw7isEUHU-40" value="" style="ellipse;whiteSpace=wrap;html=1;fillColor=#15a9ce;strokeColor=#FFFFFF;strokeWidth=2;" vertex="1" parent="V3kPspgKC5jyw7isEUHU-36">
          <mxGeometry y="16" width="77" height="20" as="geometry" />
        </mxCell>
        <mxCell id="V3kPspgKC5jyw7isEUHU-41" value="" style="ellipse;whiteSpace=wrap;html=1;fillColor=#15a9ce;strokeColor=#FFFFFF;strokeWidth=2;" vertex="1" parent="V3kPspgKC5jyw7isEUHU-36">
          <mxGeometry y="8" width="77" height="20" as="geometry" />
        </mxCell>
        <mxCell id="V3kPspgKC5jyw7isEUHU-42" value="" style="ellipse;whiteSpace=wrap;html=1;fillColor=#15a9ce;strokeColor=#FFFFFF;strokeWidth=2;" vertex="1" parent="V3kPspgKC5jyw7isEUHU-36">
          <mxGeometry width="77" height="20" as="geometry" />
        </mxCell>
        <mxCell id="V3kPspgKC5jyw7isEUHU-43" value="event journal (H2)" style="text;html=1;strokeColor=none;fillColor=none;align=center;verticalAlign=middle;whiteSpace=wrap;rounded=0;" vertex="1" parent="1">
          <mxGeometry x="545" y="340" width="105" height="30" as="geometry" />
        </mxCell>
        <mxCell id="V3kPspgKC5jyw7isEUHU-44" value="" style="rounded=0;orthogonalLoop=1;jettySize=auto;html=1;strokeWidth=2;endArrow=none;endFill=0;exitX=1;exitY=0.5;exitDx=0;exitDy=0;strokeColor=#67AB9F;entryX=0;entryY=0.5;entryDx=0;entryDy=0;" edge="1" parent="1" source="V3kPspgKC5jyw7isEUHU-3" target="V3kPspgKC5jyw7isEUHU-9">
          <mxGeometry relative="1" as="geometry">
            <mxPoint x="470" y="200" as="sourcePoint" />
            <mxPoint x="520" y="210" as="targetPoint" />
          </mxGeometry>
        </mxCell>
        <mxCell id="V3kPspgKC5jyw7isEUHU-9" value="Consumer" style="rounded=1;whiteSpace=wrap;html=1;fillColor=#f0a30a;fontColor=#000000;strokeColor=none;" vertex="1" parent="1">
          <mxGeometry x="509" y="110" width="120" height="60" as="geometry" />
        </mxCell>
        <mxCell id="V3kPspgKC5jyw7isEUHU-45" value="Producer" style="rounded=1;whiteSpace=wrap;html=1;fillColor=#b1ddf0;strokeColor=none;" vertex="1" parent="1">
          <mxGeometry x="220" y="240" width="120" height="60" as="geometry" />
        </mxCell>
        <mxCell id="V3kPspgKC5jyw7isEUHU-46" value="" style="rounded=0;orthogonalLoop=1;jettySize=auto;html=1;strokeWidth=2;endArrow=none;endFill=0;exitX=1;exitY=0.5;exitDx=0;exitDy=0;strokeColor=#67AB9F;entryX=0;entryY=0.5;entryDx=0;entryDy=0;" edge="1" parent="1" source="V3kPspgKC5jyw7isEUHU-45" target="V3kPspgKC5jyw7isEUHU-3">
          <mxGeometry relative="1" as="geometry">
            <mxPoint x="418" y="275" as="sourcePoint" />
            <mxPoint x="530" y="220" as="targetPoint" />
          </mxGeometry>
        </mxCell>
        <mxCell id="V3kPspgKC5jyw7isEUHU-47" value="" style="ellipse;whiteSpace=wrap;html=1;aspect=fixed;strokeColor=#67AB9F;fillColor=#67AB9F;" vertex="1" parent="1">
          <mxGeometry x="847" y="232.5" width="20" height="20" as="geometry" />
        </mxCell>
        <mxCell id="V3kPspgKC5jyw7isEUHU-48" value="gRPC" style="text;html=1;strokeColor=none;fillColor=none;align=center;verticalAlign=middle;whiteSpace=wrap;rounded=0;" vertex="1" parent="1">
          <mxGeometry x="827" y="257.5" width="60" height="30" as="geometry" />
        </mxCell>
        <mxCell id="V3kPspgKC5jyw7isEUHU-50" value="" style="rounded=0;orthogonalLoop=1;jettySize=auto;html=1;strokeWidth=2;endArrow=none;endFill=0;exitX=0;exitY=0.5;exitDx=0;exitDy=0;strokeColor=#67AB9F;" edge="1" parent="1" source="V3kPspgKC5jyw7isEUHU-47">
          <mxGeometry relative="1" as="geometry">
            <mxPoint x="20" y="240" as="sourcePoint" />
            <mxPoint x="800" y="243" as="targetPoint" />
          </mxGeometry>
        </mxCell>
        <mxCell id="V3kPspgKC5jyw7isEUHU-52" value="DeliveriesQueue" style="ellipse;whiteSpace=wrap;html=1;fillColor=#99CCFF;strokeColor=#7EA6E0;fontColor=#000000;" vertex="1" parent="1">
          <mxGeometry x="511.25" y="200" width="120" height="60" as="geometry" />
        </mxCell>
        <mxCell id="V3kPspgKC5jyw7isEUHU-53" value="" style="endArrow=none;html=1;rounded=0;exitX=0.625;exitY=1.025;exitDx=0;exitDy=0;strokeWidth=2;endFill=0;entryX=0.5;entryY=0;entryDx=0;entryDy=0;exitPerimeter=0;" edge="1" parent="1" source="V3kPspgKC5jyw7isEUHU-52" target="V3kPspgKC5jyw7isEUHU-42">
          <mxGeometry width="50" height="50" relative="1" as="geometry">
            <mxPoint x="230" y="280" as="sourcePoint" />
            <mxPoint x="197" y="316" as="targetPoint" />
          </mxGeometry>
        </mxCell>
        <mxCell id="V3kPspgKC5jyw7isEUHU-54" value="" style="endArrow=none;html=1;strokeWidth=2;endFill=0;curved=1;dashed=1;entryX=0.5;entryY=1;entryDx=0;entryDy=0;dashPattern=1 1;exitX=0.5;exitY=0;exitDx=0;exitDy=0;" edge="1" parent="1" source="V3kPspgKC5jyw7isEUHU-52" target="V3kPspgKC5jyw7isEUHU-9">
          <mxGeometry width="50" height="50" relative="1" as="geometry">
            <mxPoint x="70" y="240" as="sourcePoint" />
            <mxPoint x="94" y="221" as="targetPoint" />
          </mxGeometry>
        </mxCell>
        <mxCell id="V3kPspgKC5jyw7isEUHU-55" value="" style="endArrow=none;html=1;strokeWidth=2;endFill=0;curved=1;dashed=1;entryX=1;entryY=0.5;entryDx=0;entryDy=0;dashPattern=1 1;" edge="1" parent="1" target="V3kPspgKC5jyw7isEUHU-52">
          <mxGeometry width="50" height="50" relative="1" as="geometry">
            <mxPoint x="800" y="240" as="sourcePoint" />
            <mxPoint x="579" y="180" as="targetPoint" />
          </mxGeometry>
        </mxCell>
        <mxCell id="V3kPspgKC5jyw7isEUHU-56" value="" style="endArrow=none;html=1;strokeWidth=2;endFill=0;curved=1;dashed=1;entryX=1;entryY=1;entryDx=0;entryDy=0;dashPattern=1 1;" edge="1" parent="1" target="V3kPspgKC5jyw7isEUHU-35">
          <mxGeometry width="50" height="50" relative="1" as="geometry">
            <mxPoint x="800" y="240" as="sourcePoint" />
            <mxPoint x="641" y="240" as="targetPoint" />
          </mxGeometry>
        </mxCell>
        <mxCell id="V3kPspgKC5jyw7isEUHU-57" value="" style="endArrow=none;html=1;strokeWidth=2;endFill=0;curved=1;dashed=1;entryX=1;entryY=1;entryDx=0;entryDy=0;dashPattern=1 1;" edge="1" parent="1" target="V3kPspgKC5jyw7isEUHU-34">
          <mxGeometry width="50" height="50" relative="1" as="geometry">
            <mxPoint x="800" y="240" as="sourcePoint" />
            <mxPoint x="762" y="201" as="targetPoint" />
          </mxGeometry>
        </mxCell>
      </root>
    </mxGraphModel>
  </diagram>
</mxfile>
